<svg xmlns="http://www.w3.org/2000/svg" width="1200" height="200" viewBox="0 0 1200 200" role="img" aria-label="mesh logo"><g transform="translate(125.091,20) scale(1.45455)"><path d="M 42.03,0.00 L 237.34,0.00 L 237.34,295.94 L 237.39,300.30 L 237.98,308.66 L 239.13,316.59 L 240.84,324.06 L 243.08,331.06 L 245.85,337.57 L 249.11,343.57 L 252.87,349.05 L 257.09,353.98 L 261.77,358.36 L 266.89,362.17 L 272.44,365.38 L 278.39,367.98 L 284.73,369.96 L 291.44,371.30 L 298.51,371.97 L 302.19,372.03 L 305.97,371.97 L 313.22,371.30 L 320.09,369.96 L 326.56,367.98 L 332.63,365.38 L 338.27,362.17 L 343.47,358.36 L 348.21,353.98 L 352.49,349.05 L 356.28,343.57 L 359.58,337.57 L 362.36,331.06 L 364.62,324.06 L 366.33,316.59 L 367.49,308.66 L 368.08,300.30 L 368.12,295.94 L 368.12,0.00 L 553.75,0.00 L 553.75,295.94 L 553.80,300.30 L 554.38,308.66 L 555.54,316.59 L 557.24,324.06 L 559.48,331.06 L 562.23,337.57 L 565.49,343.57 L 569.23,349.05 L 573.43,353.98 L 578.08,358.36 L 583.17,362.17 L 588.67,365.38 L 594.57,367.98 L 600.85,369.96 L 607.50,371.30 L 614.49,371.97 L 618.12,372.03 L 621.90,371.97 L 629.17,371.30 L 636.06,369.96 L 642.56,367.98 L 648.65,365.38 L 654.33,362.17 L 659.57,358.36 L 664.36,353.98 L 668.68,349.05 L 672.52,343.57 L 675.86,337.57 L 678.68,331.06 L 680.97,324.06 L 682.71,316.59 L 683.88,308.66 L 684.48,300.30 L 684.53,295.94 L 684.53,0.00 L 879.84,0.00 L 879.84,344.69 L 879.81,349.87 L 879.40,360.04 L 878.57,369.97 L 877.35,379.65 L 875.74,389.08 L 873.74,398.26 L 871.37,407.17 L 868.62,415.82 L 865.51,424.19 L 862.04,432.28 L 858.22,440.09 L 854.06,447.60 L 849.57,454.81 L 844.75,461.73 L 839.60,468.33 L 834.15,474.61 L 828.38,480.57 L 822.32,486.20 L 815.96,491.50 L 809.32,496.47 L 802.40,501.08 L 795.21,505.34 L 787.76,509.25 L 780.05,512.79 L 772.09,515.96 L 763.89,518.75 L 755.45,521.17 L 746.78,523.20 L 737.90,524.83 L 728.80,526.06 L 719.49,526.89 L 709.99,527.31 L 705.16,527.34 L 698.34,527.27 L 684.82,526.44 L 671.48,524.77 L 658.39,522.26 L 645.60,518.91 L 633.16,514.73 L 621.13,509.71 L 609.57,503.85 L 598.53,497.15 L 588.07,489.60 L 578.25,481.22 L 569.12,471.99 L 560.73,461.92 L 553.15,451.01 L 546.43,439.25 L 540.63,426.65 L 538.12,420.00 L 536.13,426.70 L 531.36,439.36 L 525.72,451.17 L 519.25,462.11 L 512.00,472.20 L 504.02,481.43 L 495.36,489.80 L 486.08,497.33 L 476.21,504.01 L 465.82,509.85 L 454.94,514.84 L 443.63,518.99 L 431.95,522.31 L 419.93,524.80 L 407.63,526.45 L 395.09,527.28 L 388.75,527.34 L 382.35,527.28 L 369.68,526.45 L 357.23,524.78 L 345.03,522.26 L 333.11,518.87 L 321.52,514.62 L 310.30,509.48 L 299.48,503.45 L 289.11,496.51 L 279.22,488.66 L 269.86,479.89 L 261.06,470.17 L 252.87,459.51 L 245.31,447.89 L 238.44,435.30 L 232.29,421.73 L 229.53,414.53 L 229.53,515.62 L 42.03,515.62 L 42.03,0.00 Z M 1218.28,-11.72 L 1224.63,-11.68 L 1237.20,-11.25 L 1249.60,-10.39 L 1261.81,-9.11 L 1273.83,-7.43 L 1285.64,-5.34 L 1297.23,-2.86 L 1308.59,0.01 L 1319.71,3.25 L 1330.57,6.87 L 1341.17,10.84 L 1351.49,15.17 L 1361.52,19.84 L 1371.24,24.85 L 1380.66,30.19 L 1389.75,35.85 L 1398.51,41.82 L 1406.92,48.10 L 1414.97,54.67 L 1422.64,61.54 L 1429.94,68.68 L 1436.84,76.10 L 1443.33,83.78 L 1449.41,91.72 L 1455.05,99.91 L 1460.26,108.34 L 1465.01,117.00 L 1469.30,125.88 L 1473.11,134.98 L 1476.43,144.29 L 1479.25,153.81 L 1481.56,163.51 L 1482.50,168.44 L 1309.53,168.44 L 1308.49,165.85 L 1306.03,160.90 L 1303.10,156.23 L 1299.72,151.84 L 1295.92,147.75 L 1291.70,143.95 L 1287.08,140.45 L 1282.07,137.28 L 1276.70,134.42 L 1270.96,131.89 L 1264.89,129.70 L 1258.50,127.86 L 1251.79,126.37 L 1244.79,125.24 L 1237.51,124.48 L 1229.97,124.09 L 1226.09,124.06 L 1220.82,124.13 L 1210.72,124.87 L 1201.18,126.35 L 1192.20,128.55 L 1183.81,131.46 L 1176.01,135.05 L 1168.82,139.32 L 1162.25,144.26 L 1156.33,149.84 L 1151.06,156.05 L 1146.45,162.89 L 1142.53,170.33 L 1139.31,178.36 L 1136.80,186.96 L 1135.01,196.14 L 1133.96,205.85 L 1133.75,210.94 L 1484.38,210.94 L 1484.38,263.12 L 1484.32,270.36 L 1483.67,284.61 L 1482.38,298.57 L 1480.47,312.23 L 1477.95,325.59 L 1474.82,338.63 L 1471.10,351.33 L 1466.81,363.70 L 1461.95,375.71 L 1456.53,387.35 L 1450.58,398.62 L 1444.10,409.50 L 1437.10,419.98 L 1429.59,430.04 L 1421.59,439.68 L 1413.11,448.88 L 1404.16,457.64 L 1394.75,465.94 L 1384.90,473.76 L 1374.61,481.11 L 1363.91,487.95 L 1352.79,494.30 L 1341.28,500.12 L 1329.38,505.41 L 1317.11,510.17 L 1304.47,514.36 L 1291.49,518.00 L 1278.17,521.06 L 1264.53,523.53 L 1250.57,525.40 L 1236.31,526.66 L 1221.76,527.29 L 1214.38,527.34 L 1206.98,527.29 L 1192.42,526.64 L 1178.15,525.35 L 1164.18,523.44 L 1150.53,520.92 L 1137.20,517.79 L 1124.22,514.07 L 1111.58,509.78 L 1099.31,504.92 L 1087.41,499.52 L 1075.89,493.57 L 1064.78,487.09 L 1054.07,480.09 L 1043.79,472.59 L 1033.94,464.60 L 1024.53,456.13 L 1015.58,447.19 L 1007.11,437.80 L 999.11,427.96 L 991.61,417.69 L 984.61,407.00 L 978.14,395.90 L 972.19,384.41 L 966.78,372.53 L 961.92,360.28 L 957.63,347.68 L 953.92,334.73 L 950.80,321.44 L 948.27,307.83 L 946.36,293.91 L 945.08,279.69 L 944.43,265.18 L 944.38,257.81 L 944.43,250.44 L 945.09,235.94 L 946.39,221.72 L 948.33,207.80 L 950.89,194.19 L 954.05,180.90 L 957.82,167.95 L 962.17,155.34 L 967.09,143.09 L 972.58,131.22 L 978.61,119.73 L 985.18,108.63 L 992.28,97.94 L 999.89,87.67 L 1008.00,77.83 L 1016.60,68.43 L 1025.67,59.49 L 1035.21,51.02 L 1045.20,43.03 L 1055.63,35.53 L 1066.49,28.54 L 1077.77,22.06 L 1089.45,16.11 L 1101.52,10.70 L 1113.98,5.84 L 1126.80,1.55 L 1139.98,-2.16 L 1153.50,-5.29 L 1167.35,-7.82 L 1181.52,-9.73 L 1196.00,-11.01 L 1210.78,-11.66 L 1218.28,-11.72 Z M 1135.31,320.31 L 1135.99,324.26 L 1137.80,331.81 L 1140.14,338.93 L 1143.02,345.61 L 1146.41,351.84 L 1150.32,357.61 L 1154.72,362.91 L 1159.62,367.72 L 1164.99,372.04 L 1170.84,375.86 L 1177.15,379.16 L 1183.91,381.94 L 1191.11,384.19 L 1198.75,385.89 L 1206.81,387.03 L 1215.28,387.61 L 1219.69,387.66 L 1224.09,387.61 L 1232.57,387.03 L 1240.63,385.89 L 1248.26,384.19 L 1255.47,381.94 L 1262.23,379.16 L 1268.54,375.86 L 1274.40,372.04 L 1279.78,367.72 L 1284.69,362.91 L 1289.10,357.61 L 1293.02,351.84 L 1296.43,345.61 L 1299.33,338.93 L 1301.69,331.81 L 1303.53,324.26 L 1304.22,320.31 L 1135.31,320.31 Z M 1790.04,-13.12 L 1797.25,-13.09 L 1811.41,-12.65 L 1825.24,-11.77 L 1838.75,-10.47 L 1851.91,-8.75 L 1864.73,-6.62 L 1877.18,-4.08 L 1889.27,-1.15 L 1900.98,2.16 L 1912.31,5.86 L 1923.24,9.93 L 1933.77,14.36 L 1943.88,19.14 L 1953.58,24.28 L 1962.84,29.75 L 1971.67,35.56 L 1980.05,41.69 L 1987.97,48.13 L 1995.43,54.89 L 2002.41,61.94 L 2008.91,69.29 L 2014.92,76.93 L 2020.42,84.84 L 2025.41,93.02 L 2029.89,101.46 L 2033.84,110.16 L 2037.25,119.10 L 2040.11,128.29 L 2042.42,137.70 L 2044.16,147.33 L 2045.34,157.18 L 2045.93,167.23 L 2045.98,172.34 L 2045.88,179.52 L 2044.68,193.22 L 2042.28,206.18 L 2038.67,218.39 L 2033.82,229.86 L 2027.75,240.61 L 2020.43,250.64 L 2011.85,259.96 L 2002.00,268.59 L 1990.88,276.53 L 1978.48,283.80 L 1964.78,290.39 L 1949.77,296.33 L 1933.45,301.61 L 1915.80,306.26 L 1896.81,310.28 L 1886.76,312.03 L 1776.45,330.62 L 1770.78,331.67 L 1760.53,334.25 L 1751.62,337.40 L 1744.09,341.08 L 1737.98,345.29 L 1733.34,349.99 L 1730.89,353.83 L 1729.71,356.53 L 1728.91,359.34 L 1728.51,362.25 L 1728.48,363.75 L 1728.52,365.53 L 1729.01,368.98 L 1729.98,372.30 L 1731.44,375.47 L 1733.36,378.48 L 1735.74,381.32 L 1738.59,383.96 L 1741.88,386.41 L 1745.62,388.63 L 1749.79,390.63 L 1756.79,393.20 L 1767.67,395.64 L 1780.17,396.92 L 1787.07,397.03 L 1790.58,396.99 L 1797.42,396.46 L 1804.01,395.43 L 1810.32,393.92 L 1816.33,391.96 L 1822.00,389.56 L 1827.31,386.75 L 1832.24,383.56 L 1836.75,380.01 L 1840.82,376.12 L 1844.42,371.92 L 1847.52,367.42 L 1850.10,362.66 L 1852.13,357.65 L 1853.57,352.43 L 1854.41,347.00 L 1854.57,344.22 L 2032.23,344.22 L 2032.04,349.44 L 2031.23,359.68 L 2029.90,369.67 L 2028.04,379.39 L 2025.66,388.86 L 2022.78,398.05 L 2019.39,406.97 L 2015.50,415.61 L 2011.12,423.96 L 2006.25,432.03 L 2000.90,439.80 L 1995.07,447.27 L 1988.77,454.44 L 1982.00,461.29 L 1974.76,467.83 L 1967.08,474.06 L 1958.94,479.95 L 1950.36,485.52 L 1941.34,490.75 L 1931.88,495.64 L 1922.00,500.18 L 1911.69,504.38 L 1900.96,508.21 L 1889.83,511.69 L 1878.28,514.80 L 1866.33,517.54 L 1853.99,519.90 L 1841.26,521.89 L 1828.14,523.48 L 1814.64,524.69 L 1800.77,525.50 L 1786.53,525.90 L 1779.26,525.94 L 1772.06,525.91 L 1757.98,525.52 L 1744.27,524.75 L 1730.95,523.60 L 1718.02,522.09 L 1705.48,520.20 L 1693.35,517.95 L 1681.61,515.35 L 1670.29,512.39 L 1659.38,509.08 L 1648.89,505.43 L 1638.82,501.44 L 1629.18,497.12 L 1619.98,492.47 L 1611.22,487.49 L 1602.90,482.19 L 1595.03,476.58 L 1587.61,470.66 L 1580.66,464.44 L 1574.16,457.91 L 1568.14,451.09 L 1562.59,443.98 L 1557.53,436.58 L 1552.94,428.91 L 1548.85,420.95 L 1545.24,412.73 L 1542.14,404.23 L 1539.55,395.48 L 1537.46,386.47 L 1535.89,377.21 L 1534.83,367.70 L 1534.30,357.94 L 1534.26,352.97 L 1534.37,345.21 L 1535.66,330.27 L 1538.25,316.06 L 1542.11,302.58 L 1547.23,289.84 L 1553.61,277.85 L 1561.22,266.62 L 1570.07,256.16 L 1580.13,246.47 L 1591.40,237.58 L 1603.87,229.48 L 1617.52,222.20 L 1632.34,215.72 L 1648.32,210.08 L 1665.45,205.27 L 1683.72,201.31 L 1693.32,199.69 L 1790.04,184.06 L 1797.20,182.85 L 1809.94,180.04 L 1820.80,176.74 L 1829.79,172.97 L 1836.94,168.71 L 1841.05,165.17 L 1843.26,162.67 L 1845.03,160.04 L 1846.34,157.29 L 1847.22,154.41 L 1847.66,151.40 L 1847.70,149.84 L 1847.65,147.98 L 1847.14,144.40 L 1846.12,140.99 L 1844.61,137.76 L 1842.61,134.73 L 1840.13,131.90 L 1837.17,129.28 L 1833.76,126.88 L 1829.88,124.72 L 1825.56,122.79 L 1818.30,120.33 L 1807.07,118.02 L 1794.18,116.82 L 1787.07,116.72 L 1783.18,116.76 L 1775.70,117.24 L 1768.61,118.19 L 1761.92,119.59 L 1755.63,121.42 L 1749.75,123.67 L 1744.29,126.33 L 1739.25,129.36 L 1734.65,132.77 L 1730.49,136.53 L 1726.79,140.62 L 1723.55,145.04 L 1720.77,149.75 L 1718.47,154.76 L 1716.66,160.04 L 1715.34,165.57 L 1714.88,168.44 L 1522.54,168.44 L 1523.06,163.35 L 1524.56,153.36 L 1526.60,143.58 L 1529.16,134.04 L 1532.25,124.73 L 1535.85,115.67 L 1539.96,106.85 L 1544.56,98.29 L 1549.65,90.00 L 1555.22,81.97 L 1561.27,74.22 L 1567.78,66.75 L 1574.75,59.56 L 1582.16,52.68 L 1590.01,46.10 L 1598.30,39.82 L 1607.01,33.86 L 1616.13,28.23 L 1625.66,22.92 L 1635.59,17.95 L 1645.91,13.32 L 1656.61,9.04 L 1667.69,5.12 L 1679.13,1.56 L 1690.93,-1.64 L 1703.09,-4.45 L 1715.58,-6.89 L 1728.40,-8.93 L 1741.56,-10.58 L 1755.02,-11.83 L 1768.80,-12.67 L 1782.88,-13.09 L 1790.04,-13.12 Z M 2300.82,273.44 L 2300.87,278.96 L 2301.47,289.42 L 2302.66,299.17 L 2304.44,308.21 L 2306.79,316.56 L 2309.71,324.20 L 2313.18,331.14 L 2317.21,337.38 L 2321.78,342.93 L 2326.89,347.78 L 2332.52,351.93 L 2338.67,355.38 L 2345.32,358.15 L 2352.48,360.22 L 2360.14,361.60 L 2368.27,362.29 L 2372.54,362.34 L 2376.81,362.29 L 2384.95,361.60 L 2392.61,360.25 L 2399.77,358.23 L 2406.44,355.56 L 2412.60,352.24 L 2418.25,348.30 L 2423.37,343.73 L 2427.95,338.55 L 2431.99,332.77 L 2435.48,326.40 L 2438.41,319.45 L 2440.78,311.93 L 2442.56,303.85 L 2443.76,295.22 L 2444.36,286.05 L 2444.41,281.25 L 2444.41,0.00 L 2639.73,0.00 L 2639.73,325.16 L 2639.61,336.70 L 2638.23,358.86 L 2636.24,374.69 L 2634.51,384.90 L 2632.44,394.81 L 2630.03,404.42 L 2627.28,413.71 L 2624.18,422.67 L 2620.75,431.32 L 2616.97,439.63 L 2612.86,447.61 L 2608.40,455.24 L 2603.61,462.53 L 2598.49,469.46 L 2593.02,476.03 L 2587.22,482.23 L 2581.09,488.06 L 2574.62,493.52 L 2567.82,498.58 L 2560.68,503.26 L 2553.21,507.55 L 2545.41,511.43 L 2537.28,514.90 L 2528.82,517.96 L 2520.03,520.60 L 2510.92,522.82 L 2501.47,524.60 L 2491.70,525.95 L 2481.60,526.85 L 2471.17,527.31 L 2465.82,527.34 L 2458.46,527.27 L 2444.27,526.43 L 2430.70,524.76 L 2417.73,522.29 L 2405.36,519.05 L 2393.56,515.06 L 2382.32,510.34 L 2371.63,504.91 L 2361.47,498.80 L 2351.83,492.04 L 2342.69,484.64 L 2334.04,476.62 L 2325.87,468.02 L 2318.16,458.85 L 2310.90,449.14 L 2304.06,438.91 L 2300.82,433.59 L 2300.82,727.50 L 2105.51,727.50 L 2105.51,0.00 L 2300.82,0.00 L 2300.82,273.44 Z" fill="black" transform="matrix(0.133671,0,0,-0.133671,147.263528,102.745570)" />
</g></svg>